<svg width="33" height="33" viewBox="0 0 33 33" fill="none" xmlns="http://www.w3.org/2000/svg">
<g clip-path="url(#clip0_1124_15)">
<rect width="33" height="33" rx="6" fill="#0033A0"/>
<path d="M15.5337 19.5337L13.4663 17.4663C13.1834 17.1834 12.7592 17.0963 12.3878 17.2449L12.2243 17.3103C11.0852 17.7659 9.86969 18 8.64288 18C8.25358 18 7.90247 18.2341 7.75274 18.5934L3.93407 27.7582C3.59063 28.5825 4.41752 29.4094 5.24176 29.0659L14.4066 25.2473C14.7659 25.0975 15 24.7464 15 24.3571C15 23.1303 15.2341 21.9148 15.6897 20.7757L15.7551 20.6122C15.9037 20.2408 15.8166 19.8166 15.5337 19.5337Z" fill="white" stroke="white" stroke-width="3"/>
<path d="M18.7929 17.7929L15.2071 14.2071C14.8166 13.8166 14.1834 13.8166 13.7929 14.2071L12.7071 15.2929C12.3166 15.6834 12.3166 16.3166 12.7071 16.7071L16.2929 20.2929C16.6834 20.6834 17.3166 20.6834 17.7071 20.2929L18.7929 19.2071C19.1834 18.8166 19.1834 18.1834 18.7929 17.7929Z" fill="#FFB81A" stroke="white" stroke-width="3"/>
<path d="M17.7071 16.7071L16.2929 15.2929C16.1054 15.1054 16 14.851 16 14.5858V13.6379C16 12.6171 16.5191 11.6663 17.3777 11.1143L28.0653 4.24374C28.5173 3.95319 29.0468 4.48274 28.7563 4.93471L21.8857 15.6223C21.3337 16.4809 20.3829 17 19.3621 17H18.4142C18.149 17 17.8946 16.8946 17.7071 16.7071Z" fill="#0038A8" stroke="white" stroke-width="3"/>
<path d="M17.7071 16.7071L16.2929 15.2929C16.1054 15.1054 16 14.851 16 14.5858V13.6379C16 12.6171 16.5191 11.6663 17.3777 11.1143L28.0653 4.24374C28.5173 3.95319 29.0468 4.48274 28.7563 4.93471L21.8857 15.6223C21.3337 16.4809 20.3829 17 19.3621 17H18.4142C18.149 17 17.8946 16.8946 17.7071 16.7071Z" fill="#0038A8" stroke="#0038A8"/>
<path d="M18.7929 17.7929L15.2071 14.2071C14.8166 13.8166 14.1834 13.8166 13.7929 14.2071L12.7071 15.2929C12.3166 15.6834 12.3166 16.3166 12.7071 16.7071L16.2929 20.2929C16.6834 20.6834 17.3166 20.6834 17.7071 20.2929L18.7929 19.2071C19.1834 18.8166 19.1834 18.1834 18.7929 17.7929Z" fill="#FFB81A" stroke="#0038A8"/>
<path d="M15.5337 19.5337L13.4663 17.4663C13.1834 17.1834 12.7592 17.0963 12.3878 17.2449L12.2243 17.3103C11.0852 17.7659 9.86969 18 8.64288 18C8.25358 18 7.90247 18.2341 7.75274 18.5934L3.93407 27.7582C3.59063 28.5825 4.41752 29.4094 5.24176 29.0659L14.4066 25.2473C14.7659 25.0975 15 24.7464 15 24.3571C15 23.1303 15.2341 21.9148 15.6897 20.7757L15.7551 20.6122C15.9037 20.2408 15.8166 19.8166 15.5337 19.5337Z" fill="white" stroke="#0038A8"/>
<path d="M13.0003 23.1565L7.87052 25.1295L9.8435 19.9997C10.6769 19.9938 11.5068 19.8887 12.3156 19.6865L12.8466 19.5537L13.4463 20.1534L13.3135 20.6844C13.1113 21.4932 13.0062 22.3231 13.0003 23.1565Z" fill="#FFB81A" stroke="#FFB81A" stroke-linecap="round"/>
<path d="M4.5 28.5L11 22" stroke="#0038A8" stroke-linecap="round"/>
<circle cx="11.5" cy="21.5" r="1" fill="#0038A8"/>
<path d="M17 15L18 16" stroke="white" stroke-linecap="round"/>
<path d="M21.62 30.128C21.3133 30.128 21.0307 30.0933 20.772 30.024C20.5133 29.9573 20.2813 29.8733 20.076 29.772C19.8733 29.668 19.6987 29.5613 19.552 29.452C19.4053 29.3427 19.2893 29.2467 19.204 29.164L19.868 28.092C19.956 28.1693 20.0613 28.256 20.184 28.352C20.3067 28.448 20.444 28.54 20.596 28.628C20.748 28.7133 20.912 28.7853 21.088 28.844C21.2667 28.9 21.456 28.928 21.656 28.928C21.8427 28.928 22.0067 28.8987 22.148 28.84C22.292 28.7813 22.4053 28.6947 22.488 28.58C22.5707 28.4627 22.612 28.3173 22.612 28.144C22.612 27.9867 22.5787 27.8533 22.512 27.744C22.4453 27.632 22.3467 27.532 22.216 27.444C22.088 27.3533 21.9293 27.2653 21.74 27.18C21.5533 27.092 21.34 26.996 21.1 26.892C20.9213 26.812 20.7507 26.7213 20.588 26.62C20.428 26.516 20.2853 26.396 20.16 26.26C20.0347 26.124 19.9347 25.9707 19.86 25.8C19.788 25.6267 19.752 25.4333 19.752 25.22C19.752 24.9667 19.8027 24.724 19.904 24.492C20.0053 24.26 20.1493 24.0533 20.336 23.872C20.5253 23.6907 20.7493 23.5467 21.008 23.44C21.2693 23.3333 21.56 23.28 21.88 23.28C22.12 23.28 22.36 23.312 22.6 23.376C22.84 23.44 23.064 23.524 23.272 23.628C23.48 23.732 23.656 23.8453 23.8 23.968L23.26 24.984C23.1453 24.8853 23.0147 24.7973 22.868 24.72C22.724 24.64 22.5693 24.576 22.404 24.528C22.2413 24.48 22.076 24.456 21.908 24.456C21.7187 24.456 21.5573 24.4893 21.424 24.556C21.2933 24.6227 21.192 24.712 21.12 24.824C21.0507 24.9333 21.016 25.056 21.016 25.192C21.016 25.304 21.0387 25.4 21.084 25.48C21.132 25.5573 21.1987 25.6253 21.284 25.684C21.3693 25.74 21.472 25.7947 21.592 25.848C21.712 25.8987 21.844 25.9533 21.988 26.012C22.2973 26.1427 22.5773 26.272 22.828 26.4C23.0787 26.528 23.2933 26.6707 23.472 26.828C23.6507 26.9827 23.7867 27.164 23.88 27.372C23.976 27.58 24.024 27.828 24.024 28.116C24.024 28.5373 23.9227 28.8987 23.72 29.2C23.52 29.5013 23.24 29.732 22.88 29.892C22.52 30.0493 22.1 30.128 21.62 30.128ZM25.0331 30V23.4H26.8451C27.3145 23.4 27.7505 23.484 28.1531 23.652C28.5558 23.82 28.9078 24.0547 29.2091 24.356C29.5131 24.6573 29.7491 25.008 29.9171 25.408C30.0878 25.808 30.1731 26.24 30.1731 26.704C30.1731 27.1707 30.0891 27.604 29.9211 28.004C29.7531 28.4013 29.5171 28.7507 29.2131 29.052C28.9118 29.3507 28.5585 29.584 28.1531 29.752C27.7505 29.9173 27.3145 30 26.8451 30H25.0331ZM26.3291 28.84H26.7011C26.9998 28.84 27.2758 28.7867 27.5291 28.68C27.7825 28.5733 28.0025 28.424 28.1891 28.232C28.3758 28.04 28.5211 27.8147 28.6251 27.556C28.7291 27.2947 28.7811 27.0093 28.7811 26.7C28.7811 26.3933 28.7291 26.1107 28.6251 25.852C28.5211 25.5907 28.3758 25.364 28.1891 25.172C28.0025 24.9773 27.7825 24.8267 27.5291 24.72C27.2758 24.6133 26.9998 24.56 26.7011 24.56H26.3291V28.84Z" fill="white"/>
</g>
<defs>
<clipPath id="clip0_1124_15">
<rect width="33" height="33" fill="white"/>
</clipPath>
</defs>
</svg>
